<svg xmlns="http://www.w3.org/2000/svg" xmlns:xlink="http://www.w3.org/1999/xlink" width="2000" zoomAndPan="magnify" viewBox="0 0 1500 1499.999933" height="2000" preserveAspectRatio="xMidYMid meet" version="1.0"><defs><clipPath id="5a7f525d50"><path d="M 1050 544.757812 L 1500 544.757812 L 1500 994.757812 L 1050 994.757812 Z M 1050 544.757812 " clip-rule="nonzero"/></clipPath><clipPath id="b55c689c56"><path d="M 1275 544.757812 C 1150.734375 544.757812 1050 645.496094 1050 769.757812 C 1050 894.023438 1150.734375 994.757812 1275 994.757812 C 1399.265625 994.757812 1500 894.023438 1500 769.757812 C 1500 645.496094 1399.265625 544.757812 1275 544.757812 Z M 1275 544.757812 " clip-rule="nonzero"/></clipPath><clipPath id="21fa8727c3"><path d="M 0 0.757812 L 450 0.757812 L 450 450.757812 L 0 450.757812 Z M 0 0.757812 " clip-rule="nonzero"/></clipPath><clipPath id="67ed3f0ce1"><path d="M 225 0.757812 C 100.734375 0.757812 0 101.496094 0 225.757812 C 0 350.023438 100.734375 450.757812 225 450.757812 C 349.265625 450.757812 450 350.023438 450 225.757812 C 450 101.496094 349.265625 0.757812 225 0.757812 Z M 225 0.757812 " clip-rule="nonzero"/></clipPath><clipPath id="6bc1adf6d5"><rect x="0" width="450" y="0" height="451"/></clipPath></defs><path fill="#85bb65" d="M 1500 750 C 1500 1163.539062 1163.539062 1500 750 1500 C 336.460938 1500 0 1163.539062 0 750 C 0 336.460938 336.460938 0 750 0 C 1163.539062 0 1500 336.460938 1500 750 Z M 1017.867188 880.789062 C 1017.867188 779.941406 957.117188 723.347656 816.230469 695.25 L 746.25 680.941406 C 667.5 665.308594 635.769531 639.980469 635.769531 599.019531 C 635.769531 551.367188 679.382812 519.75 745.269531 518.25 C 746.882812 518.421875 748.328125 519.230469 750 519.230469 C 751.441406 519.230469 752.652344 518.539062 754.039062 518.421875 C 808.960938 519.460938 850.382812 540.058594 871.902344 588.921875 C 887.539062 617.480469 906.867188 629.882812 938.132812 629.882812 C 973.617188 629.882812 997.558594 607.328125 997.558594 574.152344 C 997.558594 562.152344 995.710938 552.519531 992.480469 543.289062 C 967.902344 471.171875 899.882812 424.152344 807.632812 410.308594 L 807.632812 346.152344 C 807.632812 314.308594 781.847656 288.460938 749.941406 288.460938 C 718.039062 288.460938 692.25 314.308594 692.25 346.152344 L 692.25 410.308594 C 575.421875 428.597656 496.210938 502.789062 496.210938 607.789062 C 496.210938 706.789062 561.117188 770.308594 693.691406 796.558594 L 764.191406 810.402344 C 847.5 827.421875 878.769531 852.289062 878.769531 896.019531 C 878.769531 944.828125 828.117188 980.710938 753.578125 980.710938 C 690 980.710938 637.960938 957.75 616.328125 907.097656 C 599.769531 877.617188 580.902344 866.597656 552.347656 866.597656 C 516.460938 866.597656 491.132812 891 491.132812 927.867188 C 491.132812 940.269531 493.902344 953.132812 498.460938 965.132812 C 521.132812 1026.921875 588.460938 1075.382812 692.25 1088.710938 L 692.308594 1153.847656 C 692.308594 1185.691406 718.152344 1211.539062 750 1211.539062 C 750 1211.539062 750 1211.539062 750.058594 1211.539062 C 781.902344 1211.539062 807.691406 1185.691406 807.691406 1153.847656 L 807.632812 1088.941406 C 939.171875 1071.867188 1017.867188 994.902344 1017.867188 880.789062 Z M 1017.867188 880.789062 " fill-opacity="1" fill-rule="nonzero"/><g clip-path="url(#5a7f525d50)"><g clip-path="url(#b55c689c56)"><g transform="matrix(1, 0, 0, 1, 1050, 544)"><g clip-path="url(#6bc1adf6d5)"><g clip-path="url(#21fa8727c3)"><g clip-path="url(#67ed3f0ce1)"><path fill="#85bb65" d="M 0 0.757812 L 450 0.757812 L 450 450.757812 L 0 450.757812 Z M 0 0.757812 " fill-opacity="1" fill-rule="nonzero"/></g></g></g></g></g></g></svg>