<svg xmlns="http://www.w3.org/2000/svg" xmlns:xlink="http://www.w3.org/1999/xlink" width="2000" zoomAndPan="magnify" viewBox="0 0 1500 1499.999933" height="2000" preserveAspectRatio="xMidYMid meet" version="1.0"><defs><g/><clipPath id="ed3d57aaea"><path d="M 23 615.070312 L 167.25 615.070312 L 167.25 760 L 23 760 Z M 23 615.070312 " clip-rule="nonzero"/></clipPath></defs><g clip-path="url(#ed3d57aaea)"><path fill="#00e5a0" d="M 27.675781 754.972656 C 33.128906 760.425781 41.957031 760.425781 47.410156 754.972656 L 139.660156 662.722656 L 139.660156 717.976562 C 139.660156 725.691406 145.914062 731.933594 153.621094 731.933594 C 161.324219 731.933594 167.578125 725.691406 167.578125 717.976562 L 167.578125 629.027344 C 167.578125 621.316406 161.324219 615.070312 153.621094 615.070312 L 64.664062 615.070312 C 56.957031 615.070312 50.703125 621.316406 50.703125 629.027344 C 50.703125 636.742188 56.957031 642.988281 64.664062 642.988281 L 119.917969 642.988281 L 27.664062 735.238281 C 22.222656 740.691406 22.222656 749.53125 27.675781 754.972656 Z M 27.675781 754.972656 " fill-opacity="1" fill-rule="nonzero"/></g><path fill="#00e5a0" d="M 0.664062 782.003906 L 0.664062 870.960938 C 0.664062 878.675781 6.914062 884.917969 14.621094 884.917969 L 103.578125 884.917969 C 111.28125 884.917969 117.535156 878.675781 117.535156 870.960938 C 117.535156 863.246094 111.28125 857.003906 103.578125 857.003906 L 48.324219 857.003906 L 140.574219 764.753906 C 146.027344 759.308594 146.027344 750.460938 140.574219 745.015625 C 135.121094 739.5625 126.289062 739.5625 120.835938 745.015625 L 28.585938 837.265625 L 28.585938 782.003906 C 28.585938 774.289062 22.332031 768.046875 14.628906 768.046875 C 6.925781 768.046875 0.664062 774.300781 0.664062 782.003906 Z M 0.664062 782.003906 " fill-opacity="1" fill-rule="nonzero"/><g fill="#fdf6e3" fill-opacity="1"><g transform="translate(297.234382, 823.464749)"><g><path d="M 26.359375 1.578125 C 23.359375 1.578125 21.066406 0.753906 19.484375 -0.890625 C 17.910156 -2.546875 17.125 -4.878906 17.125 -7.890625 L 17.125 -101.859375 C 17.125 -104.867188 17.875 -107.160156 19.375 -108.734375 C 20.882812 -110.316406 23.066406 -111.109375 25.921875 -111.109375 C 28.773438 -111.109375 30.988281 -110.316406 32.5625 -108.734375 C 34.144531 -107.160156 34.9375 -104.867188 34.9375 -101.859375 L 34.9375 -83.609375 L 32.671875 -83.609375 C 35.078125 -92.472656 39.660156 -99.304688 46.421875 -104.109375 C 53.179688 -108.921875 61.519531 -111.476562 71.4375 -111.78125 C 73.6875 -111.925781 75.488281 -111.4375 76.84375 -110.3125 C 78.195312 -109.1875 78.945312 -107.269531 79.09375 -104.5625 C 79.25 -102.007812 78.648438 -99.984375 77.296875 -98.484375 C 75.941406 -96.984375 73.835938 -96.082031 70.984375 -95.78125 L 67.375 -95.328125 C 57.164062 -94.421875 49.316406 -91.148438 43.828125 -85.515625 C 38.347656 -79.890625 35.609375 -72.191406 35.609375 -62.421875 L 35.609375 -7.890625 C 35.609375 -4.878906 34.816406 -2.546875 33.234375 -0.890625 C 31.660156 0.753906 29.367188 1.578125 26.359375 1.578125 Z M 26.359375 1.578125 "/></g></g></g><g fill="#fdf6e3" fill-opacity="1"><g transform="translate(376.786308, 823.464749)"><g><path d="M 51.609375 2.03125 C 44.097656 2.03125 37.375 0.566406 31.4375 -2.359375 C 25.5 -5.296875 20.800781 -9.316406 17.34375 -14.421875 C 13.894531 -19.523438 12.171875 -25.234375 12.171875 -31.546875 C 12.171875 -39.660156 14.234375 -46.046875 18.359375 -50.703125 C 22.492188 -55.359375 29.332031 -58.660156 38.875 -60.609375 C 48.414062 -62.566406 61.445312 -63.546875 77.96875 -63.546875 L 88.109375 -63.546875 L 88.109375 -51.609375 L 78.203125 -51.609375 C 66.035156 -51.609375 56.457031 -51.046875 49.46875 -49.921875 C 42.476562 -48.796875 37.59375 -46.878906 34.8125 -44.171875 C 32.039062 -41.460938 30.65625 -37.628906 30.65625 -32.671875 C 30.65625 -26.515625 32.796875 -21.484375 37.078125 -17.578125 C 41.359375 -13.671875 47.175781 -11.71875 54.53125 -11.71875 C 60.539062 -11.71875 65.835938 -13.144531 70.421875 -16 C 75.003906 -18.851562 78.609375 -22.757812 81.234375 -27.71875 C 83.867188 -32.675781 85.1875 -38.382812 85.1875 -44.84375 L 85.1875 -70.53125 C 85.1875 -79.851562 83.304688 -86.578125 79.546875 -90.703125 C 75.796875 -94.835938 69.640625 -96.90625 61.078125 -96.90625 C 55.816406 -96.90625 50.554688 -96.226562 45.296875 -94.875 C 40.035156 -93.519531 34.476562 -91.34375 28.625 -88.34375 C 26.519531 -87.289062 24.710938 -86.953125 23.203125 -87.328125 C 21.703125 -87.703125 20.5 -88.488281 19.59375 -89.6875 C 18.695312 -90.894531 18.171875 -92.285156 18.015625 -93.859375 C 17.867188 -95.441406 18.207031 -96.984375 19.03125 -98.484375 C 19.863281 -99.984375 21.179688 -101.1875 22.984375 -102.09375 C 29.597656 -105.394531 36.132812 -107.796875 42.59375 -109.296875 C 49.050781 -110.796875 55.210938 -111.546875 61.078125 -111.546875 C 70.535156 -111.546875 78.34375 -110.003906 84.5 -106.921875 C 90.664062 -103.847656 95.25 -99.191406 98.25 -92.953125 C 101.257812 -86.722656 102.765625 -78.722656 102.765625 -68.953125 L 102.765625 -7.890625 C 102.765625 -4.878906 102.050781 -2.546875 100.625 -0.890625 C 99.195312 0.753906 97.128906 1.578125 94.421875 1.578125 C 91.566406 1.578125 89.390625 0.753906 87.890625 -0.890625 C 86.390625 -2.546875 85.640625 -4.878906 85.640625 -7.890625 L 85.640625 -25.46875 L 87.671875 -25.46875 C 86.460938 -19.757812 84.164062 -14.875 80.78125 -10.8125 C 77.40625 -6.757812 73.238281 -3.601562 68.28125 -1.34375 C 63.320312 0.90625 57.765625 2.03125 51.609375 2.03125 Z M 51.609375 2.03125 "/></g></g></g><g fill="#fdf6e3" fill-opacity="1"><g transform="translate(496.226888, 823.464749)"><g><path d="M 26.59375 1.578125 C 23.582031 1.578125 21.328125 0.753906 19.828125 -0.890625 C 18.328125 -2.546875 17.578125 -4.878906 17.578125 -7.890625 L 17.578125 -101.859375 C 17.578125 -104.867188 18.328125 -107.160156 19.828125 -108.734375 C 21.328125 -110.316406 23.503906 -111.109375 26.359375 -111.109375 C 29.222656 -111.109375 31.441406 -110.316406 33.015625 -108.734375 C 34.585938 -107.160156 35.375 -104.867188 35.375 -101.859375 L 35.375 -82.03125 L 32.90625 -85.1875 C 35.757812 -93.601562 40.378906 -100.097656 46.765625 -104.671875 C 53.148438 -109.253906 60.773438 -111.546875 69.640625 -111.546875 C 78.953125 -111.546875 86.5 -109.328125 92.28125 -104.890625 C 98.070312 -100.460938 101.941406 -93.59375 103.890625 -84.28125 L 100.515625 -84.28125 C 103.210938 -92.695312 108.054688 -99.34375 115.046875 -104.21875 C 122.035156 -109.101562 130.1875 -111.546875 139.5 -111.546875 C 147.757812 -111.546875 154.554688 -109.96875 159.890625 -106.8125 C 165.222656 -103.664062 169.238281 -98.898438 171.9375 -92.515625 C 174.644531 -86.128906 176 -78.050781 176 -68.28125 L 176 -7.890625 C 176 -4.878906 175.207031 -2.546875 173.625 -0.890625 C 172.050781 0.753906 169.765625 1.578125 166.765625 1.578125 C 163.910156 1.578125 161.691406 0.753906 160.109375 -0.890625 C 158.535156 -2.546875 157.75 -4.878906 157.75 -7.890625 L 157.75 -67.375 C 157.75 -77.445312 156.019531 -84.847656 152.5625 -89.578125 C 149.113281 -94.304688 143.253906 -96.671875 134.984375 -96.671875 C 125.972656 -96.671875 118.875 -93.550781 113.6875 -87.3125 C 108.507812 -81.082031 105.921875 -72.632812 105.921875 -61.96875 L 105.921875 -7.890625 C 105.921875 -4.878906 105.128906 -2.546875 103.546875 -0.890625 C 101.972656 0.753906 99.679688 1.578125 96.671875 1.578125 C 93.816406 1.578125 91.601562 0.753906 90.03125 -0.890625 C 88.457031 -2.546875 87.671875 -4.878906 87.671875 -7.890625 L 87.671875 -67.375 C 87.671875 -77.445312 85.90625 -84.847656 82.375 -89.578125 C 78.84375 -94.304688 73.019531 -96.671875 64.90625 -96.671875 C 55.882812 -96.671875 48.78125 -93.550781 43.59375 -87.3125 C 38.414062 -81.082031 35.828125 -72.632812 35.828125 -61.96875 L 35.828125 -7.890625 C 35.828125 -1.578125 32.75 1.578125 26.59375 1.578125 Z M 26.59375 1.578125 "/></g></g></g><g fill="#fdf6e3" fill-opacity="1"><g transform="translate(689.134709, 823.464749)"><g><path d="M 26.140625 42.140625 C 23.140625 42.140625 20.882812 41.347656 19.375 39.765625 C 17.875 38.191406 17.125 35.90625 17.125 32.90625 L 17.125 -101.859375 C 17.125 -104.867188 17.875 -107.160156 19.375 -108.734375 C 20.882812 -110.316406 23.066406 -111.109375 25.921875 -111.109375 C 28.921875 -111.109375 31.207031 -110.316406 32.78125 -108.734375 C 34.363281 -107.160156 35.15625 -104.867188 35.15625 -101.859375 L 35.15625 -80.453125 L 32.671875 -83.609375 C 35.078125 -92.171875 39.847656 -98.96875 46.984375 -104 C 54.117188 -109.03125 62.644531 -111.546875 72.5625 -111.546875 C 82.332031 -111.546875 90.859375 -109.253906 98.140625 -104.671875 C 105.429688 -100.097656 111.066406 -93.566406 115.046875 -85.078125 C 119.023438 -76.585938 121.015625 -66.484375 121.015625 -54.765625 C 121.015625 -43.191406 119.023438 -33.160156 115.046875 -24.671875 C 111.066406 -16.179688 105.46875 -9.609375 98.25 -4.953125 C 91.039062 -0.296875 82.476562 2.03125 72.5625 2.03125 C 62.644531 2.03125 54.15625 -0.484375 47.09375 -5.515625 C 40.039062 -10.554688 35.234375 -17.28125 32.671875 -25.6875 L 35.375 -25.6875 L 35.375 32.90625 C 35.375 35.90625 34.546875 38.191406 32.890625 39.765625 C 31.242188 41.347656 28.992188 42.140625 26.140625 42.140625 Z M 68.734375 -12.625 C 75.640625 -12.625 81.609375 -14.273438 86.640625 -17.578125 C 91.679688 -20.878906 95.585938 -25.6875 98.359375 -32 C 101.140625 -38.3125 102.53125 -45.898438 102.53125 -54.765625 C 102.53125 -68.429688 99.488281 -78.867188 93.40625 -86.078125 C 87.320312 -93.296875 79.097656 -96.90625 68.734375 -96.90625 C 61.972656 -96.90625 56.035156 -95.289062 50.921875 -92.0625 C 45.816406 -88.832031 41.875 -84.097656 39.09375 -77.859375 C 36.320312 -71.628906 34.9375 -63.929688 34.9375 -54.765625 C 34.9375 -41.242188 38.015625 -30.835938 44.171875 -23.546875 C 50.328125 -16.265625 58.515625 -12.625 68.734375 -12.625 Z M 68.734375 -12.625 "/></g></g></g><g fill="#00e5a0" fill-opacity="1"><g transform="translate(820.5234, 823.464749)"><g><path d="M 29.078125 0 C 25.765625 0 23.316406 -0.785156 21.734375 -2.359375 C 20.160156 -3.941406 19.375 -6.082031 19.375 -8.78125 C 19.375 -10.4375 19.785156 -12.050781 20.609375 -13.625 C 21.441406 -15.207031 22.609375 -16.828125 24.109375 -18.484375 L 74.59375 -72.5625 C 82.257812 -80.820312 87.78125 -88.445312 91.15625 -95.4375 C 94.539062 -102.425781 96.234375 -109.523438 96.234375 -116.734375 C 96.234375 -125.742188 93.488281 -132.613281 88 -137.34375 C 82.519531 -142.082031 74.519531 -144.453125 64 -144.453125 C 57.238281 -144.453125 50.851562 -143.398438 44.84375 -141.296875 C 38.832031 -139.191406 33.050781 -135.960938 27.5 -131.609375 C 25.539062 -130.109375 23.769531 -129.429688 22.1875 -129.578125 C 20.613281 -129.734375 19.222656 -130.335938 18.015625 -131.390625 C 16.816406 -132.441406 15.992188 -133.789062 15.546875 -135.4375 C 15.097656 -137.09375 15.132812 -138.742188 15.65625 -140.390625 C 16.1875 -142.046875 17.351562 -143.550781 19.15625 -144.90625 C 25.007812 -149.71875 32.066406 -153.585938 40.328125 -156.515625 C 48.597656 -159.441406 57.015625 -160.90625 65.578125 -160.90625 C 76.242188 -160.90625 85.257812 -159.25 92.625 -155.9375 C 99.988281 -152.632812 105.546875 -147.789062 109.296875 -141.40625 C 113.054688 -135.019531 114.9375 -127.25 114.9375 -118.09375 C 114.9375 -111.78125 113.921875 -105.582031 111.890625 -99.5 C 109.859375 -93.414062 106.773438 -87.21875 102.640625 -80.90625 C 98.515625 -74.59375 93.144531 -68.054688 86.53125 -61.296875 L 38.53125 -10.59375 L 38.53125 -15.78125 L 114.484375 -15.78125 C 117.335938 -15.78125 119.476562 -15.140625 120.90625 -13.859375 C 122.332031 -12.578125 123.046875 -10.660156 123.046875 -8.109375 C 123.046875 -5.410156 122.332031 -3.382812 120.90625 -2.03125 C 119.476562 -0.675781 117.335938 0 114.484375 0 Z M 29.078125 0 "/></g></g></g><g fill="#fdf6e3" fill-opacity="1"><g transform="translate(955.746048, 823.464749)"><g><path d="M 54.09375 2.03125 C 47.320312 2.03125 40.519531 1.207031 33.6875 -0.4375 C 26.851562 -2.09375 20.503906 -4.953125 14.640625 -9.015625 C 13.140625 -10.066406 12.085938 -11.304688 11.484375 -12.734375 C 10.890625 -14.160156 10.703125 -15.585938 10.921875 -17.015625 C 11.148438 -18.441406 11.753906 -19.679688 12.734375 -20.734375 C 13.710938 -21.785156 14.914062 -22.421875 16.34375 -22.640625 C 17.769531 -22.867188 19.382812 -22.535156 21.1875 -21.640625 C 27.039062 -18.023438 32.707031 -15.503906 38.1875 -14.078125 C 43.675781 -12.648438 49.125 -11.9375 54.53125 -11.9375 C 63.09375 -11.9375 69.550781 -13.515625 73.90625 -16.671875 C 78.269531 -19.828125 80.453125 -24.109375 80.453125 -29.515625 C 80.453125 -33.722656 79.023438 -37.066406 76.171875 -39.546875 C 73.316406 -42.023438 68.8125 -43.941406 62.65625 -45.296875 L 42.140625 -49.796875 C 32.671875 -51.753906 25.644531 -55.132812 21.0625 -59.9375 C 16.488281 -64.75 14.203125 -70.988281 14.203125 -78.65625 C 14.203125 -85.414062 15.96875 -91.234375 19.5 -96.109375 C 23.03125 -100.992188 28.023438 -104.785156 34.484375 -107.484375 C 40.941406 -110.191406 48.453125 -111.546875 57.015625 -111.546875 C 63.628906 -111.546875 69.898438 -110.679688 75.828125 -108.953125 C 81.765625 -107.234375 87.140625 -104.492188 91.953125 -100.734375 C 93.453125 -99.679688 94.460938 -98.441406 94.984375 -97.015625 C 95.515625 -95.585938 95.59375 -94.160156 95.21875 -92.734375 C 94.84375 -91.304688 94.128906 -90.101562 93.078125 -89.125 C 92.023438 -88.15625 90.742188 -87.59375 89.234375 -87.4375 C 87.734375 -87.289062 86.160156 -87.742188 84.515625 -88.796875 C 80.003906 -91.796875 75.421875 -94.007812 70.765625 -95.4375 C 66.109375 -96.863281 61.523438 -97.578125 57.015625 -97.578125 C 48.597656 -97.578125 42.210938 -95.925781 37.859375 -92.625 C 33.503906 -89.320312 31.328125 -84.960938 31.328125 -79.546875 C 31.328125 -75.335938 32.675781 -71.878906 35.375 -69.171875 C 38.082031 -66.472656 42.289062 -64.523438 48 -63.328125 L 68.515625 -59.046875 C 78.273438 -56.941406 85.597656 -53.597656 90.484375 -49.015625 C 95.367188 -44.429688 97.8125 -38.234375 97.8125 -30.421875 C 97.8125 -20.503906 93.828125 -12.613281 85.859375 -6.75 C 77.898438 -0.894531 67.3125 2.03125 54.09375 2.03125 Z M 54.09375 2.03125 "/></g></g></g><g fill="#fdf6e3" fill-opacity="1"><g transform="translate(1061.890425, 823.464749)"><g><path d="M 54.984375 1.578125 C 52.429688 1.578125 50.175781 0.898438 48.21875 -0.453125 C 46.269531 -1.804688 44.695312 -3.984375 43.5 -6.984375 L 9.921875 -98.25 C 9.015625 -100.8125 8.75 -103.066406 9.125 -105.015625 C 9.5 -106.972656 10.4375 -108.476562 11.9375 -109.53125 C 13.445312 -110.582031 15.328125 -111.109375 17.578125 -111.109375 C 19.828125 -111.109375 21.664062 -110.582031 23.09375 -109.53125 C 24.519531 -108.476562 25.6875 -106.523438 26.59375 -103.671875 L 58.140625 -13.515625 L 52.734375 -13.515625 L 85.1875 -103.671875 C 86.238281 -106.367188 87.550781 -108.28125 89.125 -109.40625 C 90.707031 -110.539062 92.773438 -111.109375 95.328125 -111.109375 C 97.734375 -111.109375 99.757812 -110.503906 101.40625 -109.296875 C 103.0625 -108.097656 104.34375 -106.222656 105.25 -103.671875 L 137.015625 -13.515625 L 131.828125 -13.515625 L 163.84375 -104.109375 C 164.882812 -106.816406 166.15625 -108.660156 167.65625 -109.640625 C 169.164062 -110.617188 170.972656 -111.109375 173.078125 -111.109375 C 175.484375 -111.109375 177.320312 -110.503906 178.59375 -109.296875 C 179.875 -108.097656 180.585938 -106.519531 180.734375 -104.5625 C 180.890625 -102.613281 180.515625 -100.507812 179.609375 -98.25 L 146.03125 -6.984375 C 144.976562 -4.128906 143.4375 -1.988281 141.40625 -0.5625 C 139.382812 0.863281 137.097656 1.578125 134.546875 1.578125 C 131.984375 1.578125 129.722656 0.863281 127.765625 -0.5625 C 125.816406 -1.988281 124.316406 -4.128906 123.265625 -6.984375 L 89.921875 -98.484375 L 99.609375 -98.484375 L 66.484375 -6.984375 C 65.429688 -4.128906 63.925781 -1.988281 61.96875 -0.5625 C 60.019531 0.863281 57.691406 1.578125 54.984375 1.578125 Z M 54.984375 1.578125 "/></g></g></g><g fill="#fdf6e3" fill-opacity="1"><g transform="translate(1249.164254, 823.464749)"><g><path d="M 51.609375 2.03125 C 44.097656 2.03125 37.375 0.566406 31.4375 -2.359375 C 25.5 -5.296875 20.800781 -9.316406 17.34375 -14.421875 C 13.894531 -19.523438 12.171875 -25.234375 12.171875 -31.546875 C 12.171875 -39.660156 14.234375 -46.046875 18.359375 -50.703125 C 22.492188 -55.359375 29.332031 -58.660156 38.875 -60.609375 C 48.414062 -62.566406 61.445312 -63.546875 77.96875 -63.546875 L 88.109375 -63.546875 L 88.109375 -51.609375 L 78.203125 -51.609375 C 66.035156 -51.609375 56.457031 -51.046875 49.46875 -49.921875 C 42.476562 -48.796875 37.59375 -46.878906 34.8125 -44.171875 C 32.039062 -41.460938 30.65625 -37.628906 30.65625 -32.671875 C 30.65625 -26.515625 32.796875 -21.484375 37.078125 -17.578125 C 41.359375 -13.671875 47.175781 -11.71875 54.53125 -11.71875 C 60.539062 -11.71875 65.835938 -13.144531 70.421875 -16 C 75.003906 -18.851562 78.609375 -22.757812 81.234375 -27.71875 C 83.867188 -32.675781 85.1875 -38.382812 85.1875 -44.84375 L 85.1875 -70.53125 C 85.1875 -79.851562 83.304688 -86.578125 79.546875 -90.703125 C 75.796875 -94.835938 69.640625 -96.90625 61.078125 -96.90625 C 55.816406 -96.90625 50.554688 -96.226562 45.296875 -94.875 C 40.035156 -93.519531 34.476562 -91.34375 28.625 -88.34375 C 26.519531 -87.289062 24.710938 -86.953125 23.203125 -87.328125 C 21.703125 -87.703125 20.5 -88.488281 19.59375 -89.6875 C 18.695312 -90.894531 18.171875 -92.285156 18.015625 -93.859375 C 17.867188 -95.441406 18.207031 -96.984375 19.03125 -98.484375 C 19.863281 -99.984375 21.179688 -101.1875 22.984375 -102.09375 C 29.597656 -105.394531 36.132812 -107.796875 42.59375 -109.296875 C 49.050781 -110.796875 55.210938 -111.546875 61.078125 -111.546875 C 70.535156 -111.546875 78.34375 -110.003906 84.5 -106.921875 C 90.664062 -103.847656 95.25 -99.191406 98.25 -92.953125 C 101.257812 -86.722656 102.765625 -78.722656 102.765625 -68.953125 L 102.765625 -7.890625 C 102.765625 -4.878906 102.050781 -2.546875 100.625 -0.890625 C 99.195312 0.753906 97.128906 1.578125 94.421875 1.578125 C 91.566406 1.578125 89.390625 0.753906 87.890625 -0.890625 C 86.390625 -2.546875 85.640625 -4.878906 85.640625 -7.890625 L 85.640625 -25.46875 L 87.671875 -25.46875 C 86.460938 -19.757812 84.164062 -14.875 80.78125 -10.8125 C 77.40625 -6.757812 73.238281 -3.601562 68.28125 -1.34375 C 63.320312 0.90625 57.765625 2.03125 51.609375 2.03125 Z M 51.609375 2.03125 "/></g></g></g><g fill="#fdf6e3" fill-opacity="1"><g transform="translate(1368.60481, 823.464749)"><g><path d="M 26.140625 42.140625 C 23.140625 42.140625 20.882812 41.347656 19.375 39.765625 C 17.875 38.191406 17.125 35.90625 17.125 32.90625 L 17.125 -101.859375 C 17.125 -104.867188 17.875 -107.160156 19.375 -108.734375 C 20.882812 -110.316406 23.066406 -111.109375 25.921875 -111.109375 C 28.921875 -111.109375 31.207031 -110.316406 32.78125 -108.734375 C 34.363281 -107.160156 35.15625 -104.867188 35.15625 -101.859375 L 35.15625 -80.453125 L 32.671875 -83.609375 C 35.078125 -92.171875 39.847656 -98.96875 46.984375 -104 C 54.117188 -109.03125 62.644531 -111.546875 72.5625 -111.546875 C 82.332031 -111.546875 90.859375 -109.253906 98.140625 -104.671875 C 105.429688 -100.097656 111.066406 -93.566406 115.046875 -85.078125 C 119.023438 -76.585938 121.015625 -66.484375 121.015625 -54.765625 C 121.015625 -43.191406 119.023438 -33.160156 115.046875 -24.671875 C 111.066406 -16.179688 105.46875 -9.609375 98.25 -4.953125 C 91.039062 -0.296875 82.476562 2.03125 72.5625 2.03125 C 62.644531 2.03125 54.15625 -0.484375 47.09375 -5.515625 C 40.039062 -10.554688 35.234375 -17.28125 32.671875 -25.6875 L 35.375 -25.6875 L 35.375 32.90625 C 35.375 35.90625 34.546875 38.191406 32.890625 39.765625 C 31.242188 41.347656 28.992188 42.140625 26.140625 42.140625 Z M 68.734375 -12.625 C 75.640625 -12.625 81.609375 -14.273438 86.640625 -17.578125 C 91.679688 -20.878906 95.585938 -25.6875 98.359375 -32 C 101.140625 -38.3125 102.53125 -45.898438 102.53125 -54.765625 C 102.53125 -68.429688 99.488281 -78.867188 93.40625 -86.078125 C 87.320312 -93.296875 79.097656 -96.90625 68.734375 -96.90625 C 61.972656 -96.90625 56.035156 -95.289062 50.921875 -92.0625 C 45.816406 -88.832031 41.875 -84.097656 39.09375 -77.859375 C 36.320312 -71.628906 34.9375 -63.929688 34.9375 -54.765625 C 34.9375 -41.242188 38.015625 -30.835938 44.171875 -23.546875 C 50.328125 -16.265625 58.515625 -12.625 68.734375 -12.625 Z M 68.734375 -12.625 "/></g></g></g></svg>