<svg xmlns="http://www.w3.org/2000/svg" xmlns:xlink="http://www.w3.org/1999/xlink" width="2000" zoomAndPan="magnify" viewBox="0 0 1500 1499.999933" height="2000" preserveAspectRatio="xMidYMid meet" version="1.0"><defs><clipPath id="debae83d98"><path d="M 416 0 L 1215 0 L 1215 801 L 416 801 Z M 416 0 " clip-rule="nonzero"/></clipPath></defs><g clip-path="url(#debae83d98)"><path fill="#00e5a0" d="M 438.828125 777.671875 C 469.136719 807.984375 518.222656 807.984375 548.535156 777.671875 L 1061.328125 264.878906 L 1061.328125 572.015625 C 1061.328125 614.898438 1096.085938 649.601562 1138.914062 649.601562 C 1181.742188 649.601562 1216.5 614.898438 1216.5 572.015625 L 1216.5 77.585938 C 1216.5 34.707031 1181.742188 0 1138.914062 0 L 644.429688 0 C 601.601562 0 566.84375 34.707031 566.84375 77.585938 C 566.84375 120.464844 601.601562 155.171875 644.429688 155.171875 L 951.570312 155.171875 L 438.777344 667.964844 C 408.515625 698.277344 408.515625 747.414062 438.828125 777.671875 Z M 438.828125 777.671875 " fill-opacity="1" fill-rule="nonzero"/></g><path fill="#00e5a0" d="M 288.671875 927.929688 L 288.671875 1422.414062 C 288.671875 1465.292969 323.429688 1500 366.257812 1500 L 860.742188 1500 C 903.570312 1500 938.328125 1465.292969 938.328125 1422.414062 C 938.328125 1379.535156 903.570312 1344.828125 860.742188 1344.828125 L 553.601562 1344.828125 L 1066.394531 832.035156 C 1096.707031 801.777344 1096.707031 752.585938 1066.394531 722.328125 C 1036.085938 692.015625 987 692.015625 956.691406 722.328125 L 443.898438 1235.121094 L 443.898438 927.929688 C 443.898438 885.050781 409.136719 850.34375 366.308594 850.34375 C 323.484375 850.34375 288.671875 885.101562 288.671875 927.929688 Z M 288.671875 927.929688 " fill-opacity="1" fill-rule="nonzero"/></svg>